<?xml version="1.0" standalone="no"?><!DOCTYPE svg PUBLIC "-//W3C//DTD SVG 1.1//EN" "http://www.w3.org/Graphics/SVG/1.1/DTD/svg11.dtd"><svg class="icon" width="32px" height="32.00px" viewBox="0 0 1024 1024" version="1.1" xmlns="http://www.w3.org/2000/svg"><path d="M195.697778 530.204444h345.884444v49.208889H195.697778zM191.146667 320.284444h639.715555v49.208889H191.146667z"  /><path d="M907.093333 68.266667H91.022222A91.306667 91.306667 0 0 0 0 159.288889v587.377778a91.306667 91.306667 0 0 0 91.022222 91.022222h85.333334l108.088888 94.72 142.222223-94.72h188.586666v-49.208889h-209.92l-112.355555 83.911111-85.333334-83.911111H91.022222a45.226667 45.226667 0 0 1-45.795555-41.813333V159.288889A50.062222 50.062222 0 0 1 92.16 113.777778h814.933333a49.208889 49.208889 0 0 1 45.795556 45.511111v587.377778a45.511111 45.511111 0 0 1-45.795556 41.813333h-13.653333v49.208889h13.653333a91.306667 91.306667 0 0 0 91.022223-91.022222V159.288889a91.306667 91.306667 0 0 0-91.022223-91.022222z"  /><path d="M1018.595556 717.937778c-2.844444-15.075556-11.946667-24.746667-23.04-24.462222h-2.275556A68.835556 68.835556 0 0 1 924.444444 625.777778a77.653333 77.653333 0 0 1 5.973334-26.168889 31.004444 31.004444 0 0 0-10.524445-37.546667L853.333333 523.662222a31.857778 31.857778 0 0 0-12.8-2.56 34.702222 34.702222 0 0 0-24.746666 9.955556 97.28 97.28 0 0 1-54.044445 29.866666 97.564444 97.564444 0 0 1-54.328889-30.435555 34.702222 34.702222 0 0 0-24.746666-10.24 31.857778 31.857778 0 0 0-12.515556 2.56L600.177778 560.355556a31.004444 31.004444 0 0 0-11.377778 36.977777 77.653333 77.653333 0 0 1 5.973333 26.168889 68.835556 68.835556 0 0 1-68.835555 68.835556h-2.275556c-11.093333 0-20.195556 9.386667-23.04 24.462222a333.653333 333.653333 0 0 0-5.404444 51.768889 333.937778 333.937778 0 0 0 5.404444 51.768889c2.844444 14.791111 11.662222 24.462222 22.471111 24.462222h2.844445a68.835556 68.835556 0 0 1 68.835555 68.835556 77.653333 77.653333 0 0 1-5.973333 26.168888 31.004444 31.004444 0 0 0 10.524444 37.546667l64.853334 36.124445a31.288889 31.288889 0 0 0 12.8 2.56 34.133333 34.133333 0 0 0 24.746666-10.524445 98.986667 98.986667 0 0 1 55.182223-31.857778 98.133333 98.133333 0 0 1 56.888889 32.426667 34.133333 34.133333 0 0 0 25.031111 10.524444 31.288889 31.288889 0 0 0 12.515555-2.56l67.128889-37.262222a31.004444 31.004444 0 0 0 10.524445-37.546666 77.653333 77.653333 0 0 1-5.973334-26.453334 68.835556 68.835556 0 0 1 68.835556-68.835555H995.555556c11.093333 0 20.195556-9.386667 23.04-24.462223a333.937778 333.937778 0 0 0 5.404444-49.777777 333.937778 333.937778 0 0 0-5.404444-51.768889z m-258.844445 118.328889a66.56 66.56 0 1 1 66.56-66.56 66.56 66.56 0 0 1-66.56 66.56z"  /></svg>