<?xml version="1.0" standalone="no"?><!DOCTYPE svg PUBLIC "-//W3C//DTD SVG 1.1//EN" "http://www.w3.org/Graphics/SVG/1.1/DTD/svg11.dtd"><svg class="icon" width="32px" height="29.74px" viewBox="0 0 1102 1024" version="1.1" xmlns="http://www.w3.org/2000/svg"><path d="M0 0m47.261538 0l1008.246154 0q47.261538 0 47.261539 47.261538l0 0q0 47.261538-47.261539 47.261539l-1008.246154 0q-47.261538 0-47.261538-47.261539l0 0q0-47.261538 47.261538-47.261538Z"  /><path d="M0 433.230769m47.261538 0l1008.246154 0q47.261538 0 47.261539 47.261539l0 0q0 47.261538-47.261539 47.261538l-1008.246154 0q-47.261538 0-47.261538-47.261538l0 0q0-47.261538 47.261538-47.261539Z"  /><path d="M0 866.461538m47.261538 0l1008.246154 0q47.261538 0 47.261539 47.261539l0 0q0 47.261538-47.261539 47.261538l-1008.246154 0q-47.261538 0-47.261538-47.261538l0 0q0-47.261538 47.261538-47.261539Z"  /></svg>