<?xml version="1.0" standalone="no"?><!DOCTYPE svg PUBLIC "-//W3C//DTD SVG 1.1//EN" "http://www.w3.org/Graphics/SVG/1.1/DTD/svg11.dtd"><svg class="icon" width="32px" height="32.00px" viewBox="0 0 1024 1024" version="1.1" xmlns="http://www.w3.org/2000/svg"><path d="M512.20602 768v128h160a32 32 0 1 1 0 64h-384a32 32 0 1 1 0-64h160V768h-384c-71.232 0-64-62.208-64-62.208V128s-7.232-64 64-64h832s63.616 0 63.616 64v577.792c0-4.48 7.68 62.208-63.616 62.208h-384z m-128-256h352a32 32 0 1 1 0 64h-352v32h-96v-32h-64a32 32 0 0 1 0-64h64v-32h96v32z m192-256v-32h96v32h64a32 32 0 1 1 0 64h-64v32h-96v-32h-352a32 32 0 0 1 0-64h352z m-512-128v577.792h832V128h-832z" /></svg>