<?xml version="1.0" standalone="no"?><!DOCTYPE svg PUBLIC "-//W3C//DTD SVG 1.1//EN" "http://www.w3.org/Graphics/SVG/1.1/DTD/svg11.dtd"><svg class="icon" width="32px" height="32.00px" viewBox="0 0 1024 1024" version="1.1" xmlns="http://www.w3.org/2000/svg"><path d="M922.585182 668.029885l-1.684291-10.772298-40.225383-13.651463c-3.840594-12.454541-8.720431-24.455501-14.644631-35.935303l18.983857-38.509351-6.327611-8.903707c-15.619371-21.661318-34.337018-40.66463-55.712672-56.419153l-8.720431-6.397235-37.903211 19.239829a210.172941 210.172941 0 0 0-35.41517-14.86272l-13.363751-40.715823-10.537828-1.665862c-14.203337-2.323196-26.727503-3.450494-39.248596-3.450493-12.523141 0-25.046283 1.178492-39.319244 3.500663l-10.639193 1.71808-13.398563 40.866335c-12.185259 3.888716-24.101237 8.803366-35.377286 14.862719l-37.872494-19.305357-8.751148 6.412593c-0.578495 0.425936-1.147775 0.862111-1.723199 1.292144-13.639176-9.549778-28.156846-17.901611-43.419905-24.872223 64.496584-39.100133 107.722975-110.685075 107.722975-192.520133 0-123.744733-98.80391-224.060921-220.628857-224.060922-121.826995 0-220.595069 100.316189-220.59507 224.060922 0 81.835058 43.190555 153.420001 107.721951 192.520133-96.040443 43.812053-162.89606 141.772282-162.896059 255.603757v196.053562c0 15.466812 12.3542 28.007359 27.571184 28.007359 15.214936 0 27.602924-12.539524 27.602924-28.007359v-196.053562c0-123.744733 98.768074-224.061945 220.59507-224.061945 41.841074 0 80.959637 11.833043 114.318844 32.383445h0.611259a255.057002 255.057002 0 0 0-12.495496 16.073975l-6.295871 8.904731 18.953141 38.510375c-5.925224 11.462396-10.805062 23.480762-14.642584 35.934279l-40.193642 13.533717-1.71808 10.789703c-2.28736 14.524837-3.365511 27.569136-3.365511 39.923337 0 12.355224 1.078151 25.44867 3.365511 39.923336l1.71808 10.790728 40.193642 13.632009a212.978386 212.978386 0 0 0 14.642584 35.936327l-18.851776 38.35884 6.295871 8.903707c8.348761 11.764442 16.73131 21.762683 25.416929 30.632601 8.718384 8.904731 18.580447 17.269874 30.096085 25.836722l8.751148 6.396212 37.872494-19.238806a200.543299 200.543299 0 0 0 35.377286 14.86272l13.398563 40.866335 10.639193 1.718079c14.272961 2.323196 27.130913 3.44947 39.319244 3.44947 12.185259 0 25.010447-1.127298 39.31822-3.44947l10.636121-1.718079 13.363751-40.866335c12.221095-3.887693 24.104308-8.903707 35.41517-14.86272l37.870446 19.238806 8.719408-6.396212c11.612907-8.515654 21.44323-16.931992 30.127826-25.836722 8.720431-8.919065 17.033356-18.868159 25.382117-30.632601l6.329659-8.903707-18.98693-38.493993c5.993825-11.478778 10.872638-23.497144 14.67842-35.950661l40.193643-13.633033 1.683267-10.790728c2.288384-14.509479 3.401347-27.552754 3.401347-39.92436 0.100341-12.305054-1.009551-25.350377-3.332747-39.875214zM208.926872 287.938055c0-92.809061 74.059673-168.046203 165.453725-168.046203s165.453725 75.237141 165.453726 168.046203-74.058649 168.046203-165.453726 168.046203S208.926872 380.747116 208.926872 287.938055z m661.815925 419.711072v0.270306c0 7.439551-0.503752 15.368519-1.615691 23.934343l-19.793751 6.698258-13.464092 4.646392-4.175405 13.785592a159.109732 159.109732 0 0 1-10.974003 27.047978l-6.664469 12.724847 6.327611 12.876382 9.324524 18.901947c-5.183931 6.817028-10.30131 12.775017-15.51903 18.076695l-0.033788 0.032765-0.031741 0.051194c-5.253556 5.335466-11.041579 10.503016-17.707073 15.703329l-18.650071-9.459676-12.590718-6.377782-12.453517 6.616347c-8.720431 4.577791-17.810485 8.397907-26.932279 11.327243l-13.499928 4.291104-4.409875 13.56648-6.595869 20.079415c-8.416337 1.144704-16.191723 1.666885-23.566768 1.666886-7.337162 0-15.080807-0.522182-23.563697-1.666886l-6.598941-20.079415-4.441615-13.700609-13.56648-4.241957c-9.192442-2.895548-18.177036-6.615323-26.627162-11.159326l-12.523141-6.750476-12.723823 6.428976-18.617307 9.459676c-6.665493-5.251508-12.521094-10.451821-17.739837-15.754523-5.351849-5.419425-10.503016-11.377414-15.516982-18.075672l9.256947-18.819012 6.294847-12.807782-6.564129-12.70744c-4.511239-8.786984-8.282208-17.942566-11.042603-27.16675l-4.174381-13.785592-13.465116-4.560385-19.793751-6.681875c-1.078151-8.583231-1.615691-16.511175-1.615691-23.95175 0-7.439551 0.53754-15.351113 1.615691-23.935367l19.727199-6.648088 13.42928-4.544003 4.175404-13.752827a168.271458 168.271458 0 0 1 11.07332-27.266067l6.533412-12.692082-6.263106-12.808805-9.324524-18.901947a194.923193 194.923193 0 0 1 33.293679-33.832243l18.580447 9.459676 12.65727 6.43 12.558978-6.699282c8.448078-4.511239 17.50332-8.314973 26.829891-11.294479l13.531668-4.292127 4.441615-13.599245 6.598941-20.095797c8.619067-1.094533 16.261347-1.616715 23.530932-1.616715 7.439551 0 15.080807 0.521158 23.530933 1.666885l6.595869 19.995457 4.476427 13.616651 13.499928 4.241957a163.287184 163.287184 0 0 1 26.829891 11.242261l12.489353 6.649111 12.623482-6.428976 18.580447-9.443294c12.422801 9.831347 23.598509 21.174972 33.427808 33.865007l-9.256947 18.850752-6.295871 12.792424 6.463788 12.640888c4.510215 8.835106 8.282208 18.076695 11.177756 27.402243l4.206121 13.684227 13.398564 4.560385 19.757915 6.680852c1.149823 8.587326 1.654599 16.380117 1.553234 23.633321zM677.717888 624.030461c-45.644808 0-82.707409 37.635977-82.707409 84.023101s37.062601 84.023101 82.707409 84.023101c45.715456 0 82.745293-37.635977 82.745292-84.023101s-37.029837-84.023101-82.745292-84.023101z m19.525493 103.835282c-5.218744 5.283248-12.118707 8.196202-19.525493 8.196202-7.337162 0-14.272961-2.912954-19.48761-8.196202-5.218744-5.303726-8.046715-12.321436-8.046715-19.812181 0-7.488697 2.828995-14.509479 8.046715-19.812181 5.214648-5.284272 12.150447-8.196202 19.48761-8.196202 7.406786 0 14.307774 2.91193 19.525493 8.196202 5.183931 5.302702 8.080503 12.32246 8.080503 19.812181 0 7.490745-2.896572 14.508455-8.080503 19.812181z"  /></svg>